<svg width="194" height="60" viewBox="0 0 194 60" fill="none" xmlns="http://www.w3.org/2000/svg">
<path d="M54.8964 18.0107C55.2497 18.0081 55.6472 18.0149 56.0908 18.0303L56.204 18.0342L58.9335 18.1484L61.3037 21.2461C64.2317 25.0657 69.8731 33.423 70.9501 35.5195C71.4018 36.3787 72.8278 38.9224 74.1845 41.1914C74.9968 42.5859 76.0031 44.3972 76.8779 46.0078C77.4267 47.0173 77.9256 47.9475 78.2871 48.6494C79.4627 50.9758 79.9516 51.7692 80.7382 52.3232C80.8371 52.3928 80.9404 52.4589 81.0507 52.5234C81.1775 52.5977 81.3126 52.6712 81.4599 52.7461C81.5199 52.7756 81.5782 52.8071 81.6367 52.8369C83.7188 53.8968 84.87 55.1303 85.1367 56.2012C85.1512 56.2593 85.1635 56.3169 85.1728 56.374C85.1828 56.4356 85.1903 56.4964 85.1943 56.5566C85.2107 56.8064 85.1742 57.0437 85.0878 57.2646C85.0685 57.314 85.0468 57.3625 85.0224 57.4102C84.9931 57.4674 84.9604 57.5235 84.9238 57.5781C84.8869 57.6331 84.847 57.6872 84.8027 57.7393C84.7714 57.776 84.738 57.8115 84.7031 57.8467C84.6513 57.8988 84.5958 57.9495 84.5361 57.998C83.9552 58.4705 82.9957 58.7704 81.6708 58.7988C81.664 58.799 81.6572 58.7987 81.6503 58.7988C81.3375 58.8049 81.0044 58.797 80.6513 58.7715C77.0021 58.5112 76.5818 58.1661 74.6738 54.1133C72.9492 50.5057 70.9138 47.1665 70.289 46.9873C70.2681 46.9814 70.249 46.9783 70.2314 46.9795C70.2138 46.9806 70.1978 46.9857 70.1835 46.9941C70.1724 47.0023 70.1598 47.0172 70.1445 47.0371C70.114 47.0768 70.0761 47.1392 70.0312 47.2207C69.8118 47.6196 69.4371 48.4801 69.0829 49.4209C67.9419 52.5323 64.8337 55.7711 61.2773 57.6016C59.9129 58.2792 59.0845 58.6248 58.0722 58.8271C57.9711 58.8474 57.8681 58.8662 57.7626 58.8838C57.2344 58.9716 56.642 59.0278 55.8954 59.0771C55.5794 59.0946 55.2734 59.1084 54.9765 59.1172C53.3434 59.1654 51.9884 59.0779 50.7724 58.8066C50.5512 58.7573 50.3348 58.7013 50.122 58.6396C50.0157 58.6088 49.9101 58.577 49.8056 58.543C48.1318 57.9984 46.671 57.0395 44.9941 55.5225C43.5967 54.264 42.5097 52.3733 41.8632 50.2666C41.8228 50.135 41.7849 50.0023 41.748 49.8691C41.6741 49.6026 41.6074 49.3331 41.5478 49.0615C41.518 48.9256 41.49 48.7892 41.4638 48.6523C41.3069 47.8316 41.2164 46.9953 41.1992 46.165C41.1848 45.4729 41.221 44.7851 41.3124 44.1143C41.3307 43.9804 41.3513 43.8472 41.374 43.7148C41.4705 43.1319 41.5872 42.5804 41.7324 42.0488C41.8776 41.5171 42.0512 41.005 42.2607 40.5C42.3444 40.298 42.4334 40.097 42.5292 39.8965C42.625 39.6962 42.7271 39.4963 42.8359 39.2959C43.8155 37.4906 45.3438 35.6497 47.7871 33.1963C50.4091 30.5512 51.893 28.832 52.7812 27.1455C52.9292 26.8643 53.0613 26.5843 53.1787 26.3008C53.4546 25.6348 53.6523 24.9508 53.8056 24.1953C53.8914 23.7724 53.963 23.3268 54.0263 22.8496C54.1036 22.2831 54.1439 21.8821 54.1288 21.5566C54.1008 20.9581 53.8827 20.615 53.3408 19.9688C53.2135 19.818 53.105 19.6755 53.0117 19.5449C52.9715 19.4887 52.9331 19.4354 52.8994 19.3828C52.8504 19.3063 52.8074 19.2342 52.7724 19.165C52.3501 18.3324 52.9549 18.0253 54.8964 18.0107ZM135.491 18.2666C136.299 17.9408 142.661 17.9079 144.728 18.2012C146.763 18.527 146.763 19.2113 144.664 22.1758L142.952 24.6201L143.017 47.7529L143.921 50.001C144.599 51.6951 145.407 52.8677 147.054 54.627C148.249 55.8976 149.25 57.1365 149.25 57.332C149.249 57.5275 148.862 57.8528 148.41 58.0156C147.28 58.4718 142.144 58.8303 141.046 58.5371C140.207 58.3417 140.207 58.3085 140.207 55.3115C140.207 53.6826 140.077 52.1189 139.948 51.8906C139.754 51.5974 139.303 52.0213 138.463 53.292C136.913 55.5401 135.2 57.1032 133.036 58.2109C131.583 58.9602 130.904 59.124 128.579 59.124C123.153 59.189 119.536 56.843 116.823 51.5C115.984 49.9037 114.982 48.1769 114.53 47.6553C113.464 46.3846 113.949 45.961 116.5 45.9609H118.535L119.698 48.1758C121.313 51.3036 122.508 52.6397 124.607 53.6172C128.16 55.3438 132.617 54.2363 136.008 50.8154C136.912 49.9033 137.817 48.7958 138.075 48.2744C139.141 46.1892 138.979 25.6296 137.881 24.1309C137.654 23.8372 136.783 22.6641 135.943 21.5566C134.361 19.4391 134.264 18.7553 135.491 18.2666ZM178.603 18.0625C183.66 17.7541 186.153 18.5424 189.523 21.5576C192.332 24.0588 193.913 29.0951 193.211 33.3438C192.614 37.0785 191.174 39.5117 186.855 43.8975C182.221 48.6258 181.167 50.4075 180.676 54.2793C180.465 55.8895 180.535 56.1636 181.378 57.1572C182.782 58.8017 182.185 59.2131 178.639 59.1104L175.795 59.0078L173.407 55.9238C170.458 52.1206 164.769 43.7942 163.681 41.7041C163.224 40.8474 161.784 38.3121 160.415 36.0508C159.081 33.7894 157.219 30.4312 156.271 28.6152C154.762 25.6688 154.375 25.1891 153.076 24.5381C147.704 21.9341 148.196 18.131 153.849 18.5078C157.5 18.7477 157.922 19.0907 159.853 23.1338C161.714 26.9711 163.926 30.4997 164.383 30.2256C164.523 30.122 165.015 29.0259 165.472 27.793C166.595 24.6751 169.685 21.4205 173.231 19.5703C175.408 18.4739 176.216 18.2338 178.603 18.0625ZM102.054 0C102.333 1.22154e-08 102.603 0.111184 102.81 0.308594C103.018 0.506143 103.142 0.774336 103.179 1.05371C103.304 2.00358 103.423 2.95345 103.535 3.90332C104.267 10.0822 104.732 16.2614 104.935 22.4404C107.226 20.9123 109.639 19.5361 112.174 18.3115C112.628 18.092 113.087 17.8768 113.549 17.667C113.796 17.5555 114.075 17.5002 114.348 17.543C114.619 17.5856 114.86 17.7209 115.025 17.9268C115.19 18.1328 115.269 18.3981 115.251 18.6729C115.233 18.9479 115.118 19.2079 114.955 19.4248C114.649 19.8297 114.339 20.2299 114.025 20.625C112.788 22.1827 111.489 23.6641 110.131 25.0703C117.574 25.1549 125.024 25.5736 132.479 26.3262C133.574 26.4367 134.67 26.5538 135.766 26.6787C136.087 26.7159 136.398 26.8541 136.629 27.0889C136.86 27.3236 136.994 27.6327 137 27.9551C137.006 28.2776 136.882 28.5921 136.659 28.835C136.436 29.0776 136.131 29.226 135.81 29.2744C134.72 29.4378 133.629 29.5942 132.539 29.7432C125.274 30.7358 118.002 31.4079 110.726 31.7607C111.601 32.6232 112.457 33.5151 113.291 34.4365C113.638 34.8198 113.982 35.2081 114.321 35.6016C114.502 35.8125 114.638 36.0691 114.677 36.3457C114.715 36.6219 114.655 36.8935 114.503 37.1094C114.351 37.3251 114.116 37.4731 113.844 37.5293C113.571 37.5855 113.285 37.5428 113.026 37.4424C112.543 37.2532 112.062 37.0587 111.586 36.8594C109.313 35.908 107.122 34.8385 105.013 33.6543C104.877 40.8375 104.386 48.021 103.535 55.2041C103.423 56.154 103.304 57.1038 103.179 58.0537C103.142 58.3331 103.018 58.6013 102.81 58.7988C102.603 58.9962 102.333 59.1074 102.054 59.1074C101.774 59.1074 101.504 58.9963 101.297 58.7988C101.09 58.6013 100.966 58.333 100.929 58.0537C100.804 57.1038 100.685 56.154 100.572 55.2041C99.7357 48.1401 99.2459 41.0758 99.1005 34.0117C97.2357 35.1799 95.2943 36.253 93.2753 37.2285C92.821 37.448 92.3624 37.6623 91.9003 37.8721C91.6529 37.9836 91.3737 38.0398 91.1015 37.9971C90.8298 37.9544 90.5886 37.819 90.4238 37.6133C90.2589 37.4072 90.1801 37.141 90.1982 36.8662C90.2163 36.5915 90.3312 36.332 90.4941 36.1152C90.8 35.7104 91.11 35.3101 91.4238 34.915C92.2188 33.9141 93.0396 32.9443 93.8847 32.0059C87.1019 31.8746 80.3139 31.4669 73.5214 30.7812C72.4264 30.6707 71.3306 30.5537 70.2353 30.4287C69.9133 30.3915 69.6024 30.2535 69.371 30.0186C69.1399 29.7838 69.0057 29.4746 68.9999 29.1523C68.9943 28.83 69.1179 28.5153 69.3408 28.2725C69.5637 28.0297 69.87 27.8814 70.1904 27.833C71.2805 27.6696 72.3714 27.5132 73.4619 27.3643C80.1813 26.4462 86.9057 25.8015 93.6347 25.4307C92.1488 24.0735 90.7189 22.6364 89.3456 21.1191C88.9986 20.7357 88.6552 20.3468 88.3154 19.9531C88.1342 19.7422 87.9984 19.4856 87.9599 19.209C87.9214 18.9328 87.9811 18.6612 88.1328 18.4453C88.2846 18.2294 88.5206 18.0817 88.7929 18.0254C89.0653 17.9692 89.3517 18.0119 89.6103 18.1123C90.0937 18.3014 90.5735 18.496 91.0497 18.6953C93.8796 19.8797 96.5826 21.2458 99.1591 22.791C99.3556 16.4951 99.8267 10.1991 100.572 3.90332C100.685 2.95345 100.804 2.00358 100.929 1.05371C100.966 0.77437 101.09 0.50614 101.297 0.308594C101.504 0.111169 101.774 4.91808e-05 102.054 0ZM20.2294 15.415C24.7852 14.1735 30.883 15.8074 33.8974 19.1074C36.7403 22.1459 38.1103 25.7398 38.0761 29.8564C38.0761 32.6009 37.4941 34.0391 34.2744 39.2666C31.9109 43.1545 31.3968 45.3109 32.2187 48.0879C32.7668 49.9176 33.9316 50.9961 37.0829 52.499C39.6175 53.6751 41.1246 55.1781 41.1249 56.5176C41.1249 56.8443 40.6106 57.4326 40.0283 57.792C39.0693 58.3473 38.521 58.4456 36.3974 58.2822C33.349 58.0861 31.7048 57.2037 30.4374 55.0801C27.9028 50.9307 28.4171 46.7815 32.4589 38.0908C33.9661 34.8563 34.034 34.5944 34.0683 31.458C34.1026 28.5174 33.9998 27.9945 33.1777 26.3936C31.7733 23.6492 30.1978 22.0809 27.5605 20.8721C25.471 19.8919 24.9911 19.7937 23.2099 19.957C20.5038 20.1858 17.1469 21.7866 14.6806 24.041C11.5293 26.9162 11.5636 26.7856 11.4951 37.3389C11.4608 42.3703 11.529 47.8264 11.666 49.4277C11.8715 52.3683 11.9064 52.4011 13.6191 54.4922C15.7768 57.171 15.9479 57.596 15.0576 58.4453C14.3725 59.0988 14.0297 59.1317 8.89154 59.001C4.43864 58.9356 3.37695 58.8046 2.8974 58.3799C2.14405 57.6285 2.45198 56.9099 4.50678 54.46C5.43164 53.3491 6.32289 52.0414 6.4599 51.584C6.59686 51.1234 6.69916 45.2761 6.69916 38.6455V26.5566L5.706 24.3027C4.95242 22.6364 4.06214 21.3943 2.38373 19.6953C-0.527708 16.7876 -0.6653 16.2317 1.38959 15.709C3.58132 15.1863 9.43686 15.154 9.88471 15.709C10.1245 15.9377 10.3299 17.8657 10.3642 20.0547L10.4677 23.9434L11.5292 22.1455C12.7283 20.1524 16.2223 16.7878 17.7294 16.2324C18.2432 16.0037 19.3731 15.6437 20.2294 15.415ZM184.222 24.2295C182.642 23.1674 179.482 22.7225 177.305 23.2363C172.108 24.4355 166.384 28.7181 165.226 32.1787C165.05 32.7955 167.824 38.5178 170.809 43.5889C172.389 46.2616 178.428 54.7246 178.779 54.7246C178.885 54.724 179.341 53.696 179.763 52.4629C180.676 49.8247 182.537 46.6384 185.24 43.0752C187.628 39.9573 188.541 38.1409 188.997 35.6055C189.91 30.9456 188.189 26.9021 184.222 24.2295ZM55.9247 22.415C55.8577 22.4193 55.6532 22.8188 55.4052 23.416C55.2557 23.7766 55.0902 24.2092 54.9296 24.6709C54.0019 27.304 52.1229 30.4802 49.3994 34.0283C47.9599 35.8864 47.0535 37.2821 46.455 38.6455C46.0537 39.5605 45.7895 40.4604 45.6005 41.4775C45.3364 42.7866 45.2812 44.0481 45.4257 45.2451C45.4739 45.6441 45.5443 46.0359 45.6367 46.4199C45.6981 46.6757 45.7687 46.9281 45.8496 47.1768C46.4495 49.022 47.5801 50.6664 49.2021 52.0361C49.2424 52.0702 49.2832 52.104 49.3242 52.1377C49.636 52.3945 49.9646 52.6425 50.3115 52.8789C51.8856 53.9499 55.0437 54.4129 57.2236 53.9111C58.9841 53.5152 60.8061 52.7655 62.4931 51.8145C65.2582 50.253 67.6571 48.1468 68.8193 46.1602C68.9286 45.9733 69.0296 45.7892 69.1171 45.6055C69.1902 45.4502 69.2545 45.2962 69.3105 45.1436C69.3237 45.1073 69.3392 45.0722 69.3515 45.0361C69.3532 45.0302 69.3533 45.0235 69.3544 45.0166C69.3563 45.0059 69.3578 44.9944 69.3583 44.9814C69.3687 44.726 69.1286 44.0375 68.7109 43.0615C68.712 43.0608 68.7127 43.0593 68.7138 43.0586C67.9685 41.3172 66.6522 38.6671 65.1621 35.9521V35.9531C64.7301 35.1662 64.2845 34.3729 63.8329 33.5957C62.2846 30.943 56.4043 22.6029 55.9374 22.4209C55.9323 22.4189 55.9286 22.4151 55.9247 22.415ZM57.0497 37.999C57.2137 38.7473 57.3176 39.4955 57.3642 40.2432C57.6547 40.0357 57.9678 39.85 58.3056 39.6895C58.377 39.6555 58.4499 39.6226 58.5234 39.5908C58.4921 39.6645 58.4591 39.737 58.4257 39.8086C58.2613 40.1615 58.0711 40.489 57.8554 40.791C58.557 40.8266 59.2587 40.8976 59.9599 41.0068C60.0712 41.0242 60.1826 41.0423 60.2939 41.0615C60.3345 41.0686 60.3736 41.0875 60.4023 41.1182C60.4309 41.1489 60.4464 41.1888 60.4462 41.2295C60.446 41.2703 60.4303 41.3104 60.4013 41.3408C60.3723 41.3712 60.3327 41.3898 60.2919 41.3965C60.1804 41.4144 60.0685 41.4312 59.957 41.4473C59.2818 41.5447 58.6063 41.6073 57.9316 41.6367C58.1241 41.9215 58.295 42.228 58.4433 42.5557C58.4758 42.6275 58.5077 42.7005 58.538 42.7744C58.4649 42.7418 58.3922 42.7085 58.3212 42.6738C57.9752 42.5046 57.6556 42.3093 57.3603 42.0908C57.308 42.8683 57.193 43.6461 57.0136 44.4229C56.9862 44.5416 56.9571 44.6606 56.9267 44.7793C56.8976 44.6602 56.8698 44.541 56.8437 44.4219C56.6753 43.6531 56.5699 42.8843 56.5253 42.1162C56.2389 42.3195 55.9298 42.5013 55.5976 42.6592C55.5264 42.693 55.4541 42.7261 55.3808 42.7578C55.4121 42.6841 55.4441 42.6107 55.4775 42.5391C55.6291 42.2137 55.8028 41.91 55.998 41.6279C55.3099 41.5916 54.6222 41.5202 53.9345 41.4131C53.8233 41.3958 53.7118 41.3776 53.6005 41.3584C53.5598 41.3513 53.5198 41.3325 53.4912 41.3018C53.4626 41.271 53.447 41.2312 53.4472 41.1904C53.4475 41.1497 53.4632 41.1095 53.4921 41.0791C53.5212 41.0487 53.5617 41.031 53.6025 41.0244C53.7138 41.0065 53.8252 40.9897 53.9365 40.9736C54.6527 40.8703 55.3691 40.8061 56.0849 40.7793C55.8729 40.4751 55.6856 40.1463 55.5253 39.792C55.4928 39.7201 55.461 39.6472 55.4306 39.5732C55.5037 39.6059 55.5764 39.6401 55.6474 39.6748C55.9676 39.8315 56.2661 40.0092 56.5429 40.208C56.5987 39.4711 56.7099 38.7343 56.8798 37.998C56.9072 37.8794 56.9364 37.7602 56.9667 37.6416C56.9958 37.7605 57.0237 37.8801 57.0497 37.999ZM178.587 34.4814C178.76 35.2491 178.869 36.0174 178.918 36.7852C179.203 36.5804 179.511 36.398 179.843 36.2383C179.914 36.204 179.986 36.1699 180.06 36.1377C180.029 36.2115 179.997 36.2847 179.964 36.3564C179.814 36.6826 179.642 36.9873 179.448 37.2705C180.137 37.303 180.825 37.3704 181.514 37.4736C181.625 37.4903 181.736 37.5078 181.848 37.5264C181.888 37.5332 181.928 37.5524 181.957 37.583C181.986 37.6136 182.002 37.6536 182.002 37.6943C182.002 37.7351 181.986 37.7751 181.957 37.8057C181.928 37.8362 181.888 37.8545 181.848 37.8613C181.736 37.8799 181.625 37.8974 181.514 37.9141C180.798 38.0214 180.082 38.0893 179.366 38.1201C179.58 38.423 179.769 38.7502 179.932 39.1035C179.965 39.1753 179.996 39.2484 180.027 39.3223C179.954 39.29 179.881 39.257 179.81 39.2227C179.488 39.0678 179.189 38.8916 178.911 38.6943C178.859 39.4316 178.753 40.1691 178.587 40.9062C178.56 41.025 178.532 41.144 178.502 41.2627C178.472 41.144 178.444 41.025 178.417 40.9062C178.249 40.1589 178.141 39.4114 178.09 38.6641C177.8 38.8731 177.488 39.0602 177.151 39.2227C177.08 39.2569 177.008 39.2901 176.935 39.3223C176.965 39.2484 176.997 39.1753 177.03 39.1035C177.193 38.7498 177.382 38.4214 177.596 38.1182C176.894 38.0865 176.192 38.0193 175.49 37.9141C175.379 37.8973 175.267 37.8799 175.155 37.8613C175.115 37.8544 175.076 37.836 175.047 37.8057C175.018 37.7751 175.002 37.7351 175.002 37.6943C175.002 37.6535 175.018 37.6136 175.047 37.583C175.076 37.5525 175.115 37.5333 175.155 37.5264C175.267 37.5078 175.379 37.4904 175.49 37.4736C176.165 37.3724 176.84 37.3066 177.515 37.2734C177.321 36.9898 177.148 36.6842 176.998 36.3574C176.965 36.2857 176.933 36.2125 176.902 36.1387C176.975 36.1709 177.048 36.204 177.119 36.2383C177.466 36.4056 177.787 36.5986 178.084 36.8154C178.132 36.0376 178.242 35.2592 178.417 34.4814C178.444 34.3627 178.472 34.2438 178.502 34.125C178.532 34.2438 178.56 34.3627 178.587 34.4814Z" fill="white"/>
</svg>
